<svg xmlns="http://www.w3.org/2000/svg" width="32" height="32" version="1"><defs><clipPath id="a" clipPathUnits="userSpaceOnUse"><path fill="#fecd38" d="M91.5 254c-.831 0-1.5.669-1.5 1.5v25c0 .831.669 1.5 1.5 1.5H108l10-10v-16.5c0-.831-.669-1.5-1.5-1.5z"/></clipPath></defs><path fill="#e4e4e4" d="M3.5 4C2.669 4 2 4.669 2 5.5v21c0 .831.669 1.5 1.5 1.5H20l10-10V5.5c0-.831-.67-1.5-1.5-1.5z"/><path d="M11 13.125l6.625 7.5 4.25-4.125L26 20.625 23 24H6v-5z" opacity=".3"/><path opacity=".2" d="M118 272h-8.5a1.5 1.5 0 00-1.5 1.5v8.5z" clip-path="url(#a)" transform="translate(-88 -254)"/><path d="M30 18h-8.5a1.5 1.5 0 00-1.5 1.5V28z" fill="#fafafa"/><path fill="#fff" d="M21.5 18a1.5 1.5 0 00-1.5 1.5v1a1.5 1.5 0 011.5-1.5H29l1-1h-8.5z" opacity=".2"/><path opacity=".2" d="M30 18L20 28H3.5c-.831 0-1.5-.669-1.5-1.5v1c0 .831.669 1.5 1.5 1.5H20l10-10v-1z"/><path d="M3.5 4C2.669 4 2 4.669 2 5.5v1C2 5.669 2.669 5 3.5 5h25c.831 0 1.5.669 1.5 1.5v-1c0-.831-.669-1.5-1.5-1.5h-25z" fill="#fff" opacity=".2"/></svg>